fd_5_states
version=1
nRows=39
nColumns=17
inDegrees=yes

# SIMM Motion File Header:
name fd_5_states
datacolumns 17
datarows 39
otherdata 1
range 0.326693 0.456000
endheader
time	/jointset/r_shoulder/r_shoulder_elev/value	/jointset/r_shoulder/r_shoulder_elev/speed	/jointset/r_elbow/r_elbow_flex/value	/jointset/r_elbow/r_elbow_flex/speed	/forceset/TRIlong/activation	/forceset/TRIlong/fiber_length	/forceset/TRIlat/activation	/forceset/TRIlat/fiber_length	/forceset/TRImed/activation	/forceset/TRImed/fiber_length	/forceset/BIClong/activation	/forceset/BIClong/fiber_length	/forceset/BICshort/activation	/forceset/BICshort/fiber_length	/forceset/BRA/activation	/forceset/BRA/fiber_length
      0.326693	     -0.012467	      0.172324	     52.676578	   -158.063397	      0.020000	      0.157188	      0.281929	      0.090233	      0.271921	      0.085325	      0.186265	      0.124753	      0.020000	      0.125832	      0.020568	      0.081000
      0.329328	     -0.012010	      0.175178	     52.261684	   -156.831878	      0.020000	      0.157036	      0.278786	      0.090083	      0.268732	      0.085175	      0.185521	      0.125031	      0.020000	      0.126103	      0.020548	      0.081106
      0.331392	     -0.011646	      0.177405	     51.939073	   -155.873664	      0.020000	      0.156918	      0.276260	      0.089966	      0.266168	      0.085058	      0.184925	      0.125246	      0.020000	      0.126313	      0.020534	      0.081189
      0.333455	     -0.011276	      0.181262	     51.618429	   -154.926157	      0.020000	      0.156799	      0.273507	      0.089850	      0.263374	      0.084942	      0.184282	      0.125459	      0.020000	      0.126521	      0.020519	      0.081270
      0.335845	     -0.010838	      0.185138	     51.249392	   -153.833953	      0.020000	      0.156663	      0.270489	      0.089716	      0.260309	      0.084808	      0.183571	      0.125704	      0.020000	      0.126760	      0.020503	      0.081364
      0.339019	     -0.010243	      0.189174	     50.763461	   -152.391890	      0.020000	      0.156484	      0.266748	      0.089539	      0.256506	      0.084632	      0.182676	      0.126024	      0.020000	      0.127073	      0.020482	      0.081485
      0.341218	     -0.009824	      0.192428	     50.429430	   -151.400984	      0.020000	      0.156360	      0.264186	      0.089417	      0.253903	      0.084510	      0.182053	      0.126243	      0.020000	      0.127287	      0.020468	      0.081568
      0.344310	     -0.009220	      0.197646	     49.963525	   -150.019908	      0.020000	      0.156187	      0.260185	      0.089247	      0.249855	      0.084340	      0.181054	      0.126548	      0.020000	      0.127584	      0.020450	      0.081682
      0.347401	     -0.008600	      0.203055	     49.501871	   -148.652414	      0.020000	      0.156015	      0.256470	      0.089078	      0.246093	      0.084172	      0.180113	      0.126848	      0.020000	      0.127876	      0.020432	      0.081794
      0.349897	     -0.008090	      0.205857	     49.132180	   -147.552146	      0.020000	      0.155877	      0.253666	      0.088942	      0.243251	      0.084036	      0.179394	      0.127088	      0.020000	      0.128110	      0.020417	      0.081884
      0.352048	     -0.007643	      0.209342	     48.815786	   -146.613207	      0.020000	      0.155759	      0.250938	      0.088826	      0.240518	      0.083920	      0.178651	      0.127292	      0.020000	      0.128308	      0.020406	      0.081960
      0.354199	     -0.007189	      0.212911	     48.501404	   -145.681390	      0.020000	      0.155641	      0.248172	      0.088711	      0.237757	      0.083805	      0.177879	      0.127494	      0.020000	      0.128505	      0.020394	      0.082034
      0.357477	     -0.006483	      0.217020	     48.026242	   -144.271808	      0.020000	      0.155463	      0.244223	      0.088537	      0.233810	      0.083631	      0.176764	      0.127799	      0.020000	      0.128801	      0.020378	      0.082147
      0.360754	     -0.005765	      0.220931	     47.555679	   -142.877652	      0.020000	      0.155286	      0.240518	      0.088363	      0.230097	      0.083458	      0.175706	      0.128099	      0.020000	      0.129092	      0.020361	      0.082256
      0.363685	     -0.005112	      0.224689	     47.138789	   -141.643928	      0.020000	      0.155129	      0.236974	      0.088210	      0.226490	      0.083305	      0.174701	      0.128364	      0.020000	      0.129349	      0.020348	      0.082353
      0.366615	     -0.004447	      0.228913	     46.725497	   -140.422859	      0.020000	      0.154973	      0.233620	      0.088057	      0.223067	      0.083153	      0.173740	      0.128625	      0.020000	      0.129602	      0.020334	      0.082447
      0.369801	     -0.003711	      0.232386	     46.280227	   -139.103785	      0.020000	      0.154805	      0.230222	      0.087893	      0.219597	      0.082988	      0.172757	      0.128904	      0.020000	      0.129873	      0.020321	      0.082549
      0.372987	     -0.002963	      0.237092	     45.839137	   -137.799553	      0.020000	      0.154638	      0.226646	      0.087729	      0.215988	      0.082825	      0.171726	      0.129179	      0.020000	      0.130140	      0.020307	      0.082647
      0.376173	     -0.002200	      0.241436	     45.402183	   -136.505864	      0.020000	      0.154472	      0.223131	      0.087567	      0.212456	      0.082663	      0.170709	      0.129450	      0.020000	      0.130403	      0.020295	      0.082745
      0.379359	     -0.001424	      0.245244	     44.969337	   -135.221546	      0.020000	      0.154307	      0.219863	      0.087406	      0.209168	      0.082502	      0.169754	      0.129717	      0.020000	      0.130662	      0.020282	      0.082840
      0.382472	     -0.000655	      0.248562	     44.550375	   -133.975111	      0.020000	      0.154147	      0.216565	      0.087250	      0.205993	      0.082346	      0.168663	      0.129974	      0.020000	      0.130911	      0.020271	      0.082931
      0.385584	      0.000121	      0.249126	     44.135289	   -132.733319	      0.020000	      0.153989	      0.213203	      0.087095	      0.202871	      0.082191	      0.167447	      0.130228	      0.020000	      0.131156	      0.020260	      0.083021
      0.389283	      0.001041	      0.248669	     43.647105	   -131.273586	      0.020000	      0.153802	      0.209502	      0.086912	      0.199427	      0.082009	      0.166095	      0.130526	      0.020000	      0.131443	      0.020248	      0.083127
      0.393826	      0.002177	      0.252047	     43.054682	   -129.517869	      0.020000	      0.153575	      0.205174	      0.086690	      0.195100	      0.081786	      0.164536	      0.130885	      0.020000	      0.131789	      0.020233	      0.083256
      0.398369	      0.003336	      0.257554	     42.470158	   -127.791913	      0.020000	      0.153350	      0.201131	      0.086470	      0.190855	      0.081567	      0.163091	      0.131235	      0.020000	      0.132126	      0.020220	      0.083384
      0.401980	      0.004274	      0.261005	     42.011195	   -126.430280	      0.020000	      0.153174	      0.198035	      0.086297	      0.187703	      0.081394	      0.161945	      0.131507	      0.020000	      0.132386	      0.020209	      0.083484
      0.405591	      0.005219	      0.262170	     41.557146	   -125.073579	      0.020000	      0.152998	      0.194645	      0.086125	      0.184577	      0.081222	      0.160586	      0.131776	      0.020000	      0.132638	      0.020199	      0.083584
      0.410825	      0.006598	      0.265269	     40.907533	   -123.136416	      0.020000	      0.152747	      0.190105	      0.085880	      0.180333	      0.080976	      0.158728	      0.132158	      0.020000	      0.132997	      0.020186	      0.083726
      0.414239	      0.007512	      0.270121	     40.489335	   -121.898338	      0.020000	      0.152585	      0.187018	      0.085721	      0.177148	      0.080818	      0.157329	      0.132403	      0.020000	      0.133225	      0.020178	      0.083819
      0.417652	      0.008445	      0.276887	     40.075328	   -120.681089	      0.020000	      0.152425	      0.184110	      0.085565	      0.174123	      0.080662	      0.155993	      0.132645	      0.020000	      0.133450	      0.020170	      0.083909
      0.421458	      0.009514	      0.284548	     39.618588	   -119.341653	      0.020000	      0.152247	      0.181064	      0.085391	      0.170964	      0.080489	      0.154594	      0.132910	      0.020000	      0.133696	      0.020162	      0.084010
      0.426124	      0.010866	      0.294251	     39.065522	   -117.722355	      0.020000	      0.152032	      0.177165	      0.085181	      0.167084	      0.080279	      0.152909	      0.133227	      0.020000	      0.133993	      0.020152	      0.084132
      0.430790	      0.012257	      0.300672	     38.519981	   -116.114301	      0.020000	      0.151819	      0.173541	      0.084973	      0.163491	      0.080072	      0.151334	      0.133538	      0.020000	      0.134282	      0.020143	      0.084253
      0.434726	      0.013448	      0.304016	     38.065599	   -114.766444	      0.020000	      0.151641	      0.170292	      0.084800	      0.160324	      0.079899	      0.149820	      0.133794	      0.020000	      0.134521	      0.020136	      0.084353
      0.438662	      0.014647	      0.305309	     37.616505	   -113.428031	      0.020000	      0.151466	      0.167238	      0.084629	      0.157349	      0.079728	      0.148379	      0.134047	      0.020000	      0.134756	      0.020129	      0.084453
      0.442185	      0.015725	      0.306394	     37.218956	   -112.242510	      0.020000	      0.151310	      0.164543	      0.084477	      0.154714	      0.079576	      0.147081	      0.134269	      0.020000	      0.134962	      0.020123	      0.084541
      0.445709	      0.016808	      0.308442	     36.825558	   -111.072345	      0.020000	      0.151156	      0.161683	      0.084327	      0.151904	      0.079426	      0.145659	      0.134489	      0.020000	      0.135165	      0.020117	      0.084629
      0.450854	      0.018402	      0.310456	     36.258374	   -109.384421	      0.020000	      0.150933	      0.157839	      0.084111	      0.148126	      0.079210	      0.143733	      0.134803	      0.020000	      0.135455	      0.020109	      0.084755
      0.456000	      0.020002	      0.310836	     35.699818	   -107.717945	      0.020000	      0.150713	      0.154059	      0.083897	      0.144490	      0.078996	      0.141788	      0.135109	      0.020000	      0.135738	      0.020102	      0.084880
